PathFileType	4	(X/Y/Z)	s04c0301.trc
DataRate	CameraRate	NumFrames	NumMarkers	Units	OrigDataRate	OrigDataStartFrame	OrigNumFrames
200	200	4	50	mm	200	0	2000
Frame#	Time	racr			lacr			c7			jug			rlel			rdr			llel			ldr			s2			lic			ric			lasi			rasi			rpsi			lpsi			rgt			lgt			rth1			rth2			rth3			rth4			rlfc			rmfc			rsh1			rsh2			rsh3			rsh4			rlmal			rmmal			rcal			rtoe			rmt5			lth1			lth2			lth4			lth3			llfc			lmfc			lsh1			lsh2			lsh3			lsh4			llmal			lmmal			lcal			ltoe			lmt5			SBIKE			LBIKE			RBIKE			
		X1	Y1	Z1	X2	Y2	Z2	X3	Y3	Z3	X4	Y4	Z4	X5	Y5	Z5	X6	Y6	Z6	X7	Y7	Z7	X8	Y8	Z8	X9	Y9	Z9	X10	Y10	Z10	X11	Y11	Z11	X12	Y12	Z12	X13	Y13	Z13	X14	Y14	Z14	X15	Y15	Z15	X16	Y16	Z16	X17	Y17	Z17	X18	Y18	Z18	X19	Y19	Z19	X20	Y20	Z20	X21	Y21	Z21	X22	Y22	Z22	X23	Y23	Z23	X24	Y24	Z24	X25	Y25	Z25	X26	Y26	Z26	X27	Y27	Z27	X28	Y28	Z28	X29	Y29	Z29	X30	Y30	Z30	X31	Y31	Z31	X32	Y32	Z32	X33	Y33	Z33	X34	Y34	Z34	X35	Y35	Z35	X36	Y36	Z36	X37	Y37	Z37	X38	Y38	Z38	X39	Y39	Z39	X40	Y40	Z40	X41	Y41	Z41	X42	Y42	Z42	X43	Y43	Z43	X44	Y44	Z44	X45	Y45	Z45	X46	Y46	Z46	X47	Y47	Z47	X48	Y48	Z48	X49	Y49	Z49	X50	Y50	Z50	
0	0.0000	501.955124	1425.808143	-139.237662	504.842195	1411.274236	-442.064334	485.038278	1471.272555	-296.412955	496.487970	1325.113346	-290.143302	495.340847	1115.530189	-39.326282	700.445074	914.370746	-116.602931	500.899363	1130.553767	-545.545897	692.295496	905.107460	-477.291916	-52.578961	1187.747340	-283.691837	111.209720	1184.784260	-438.429753	112.261845	1167.466046	-123.594138	0.000000	0.000000	-0.000000	144.805414	1108.701715	-169.399646	-16.034641	1224.573444	-238.132456	-21.343526	1232.110964	-312.779603	51.340232	1111.618428	-107.943652	57.093429	1126.650795	-482.664473	129.130180	963.912194	-90.917146	185.617550	897.551324	-102.481724	204.703086	813.657783	-108.729722	214.511138	913.400814	-120.676235	252.368443	677.922321	-136.719329	222.395122	662.059434	-245.739667	189.804917	567.722991	-109.713997	171.186449	480.132350	-122.960909	109.631629	417.837862	-126.441027	197.248604	469.202716	-149.959164	49.440104	279.851295	-133.737185	66.500290	282.343266	-219.658082	-27.841047	262.042496	-171.248947	261.334001	180.583679	-162.927616	191.371272	173.285209	-107.165160	118.972004	1072.526712	-490.629702	204.500892	1063.079886	-498.137622	218.763426	1093.819572	-483.215685	275.581204	1010.337534	-510.465397	413.862564	925.877298	-494.619208	452.732579	909.429217	-387.132197	374.476513	817.179113	-510.029797	351.216747	736.981342	-482.218570	288.387762	674.976301	-473.790383	376.309508	729.055461	-453.327163	208.506001	554.795843	-452.220606	208.580354	563.074408	-364.533455	126.567662	540.928965	-404.775206	424.089018	499.115314	-422.209273	348.327125	467.669455	-480.184884	-185.968665	934.861101	-286.746229	-17.234454	79.422567	-485.918149	-17.499179	79.297746	-84.941964	
1	0.0050	501.945347	1425.790215	-139.227318	504.840276	1411.269885	-442.061013	485.065948	1471.252012	-296.424732	496.476869	1325.101366	-290.135487	495.346304	1115.517044	-39.332588	700.446517	914.379235	-116.616247	500.854939	1130.556591	-545.526428	692.306978	905.123921	-477.302367	-52.553649	1187.766305	-283.715919	111.252266	1184.778184	-438.418590	112.277430	1167.474774	-123.589576	0.000000	0.000000	-0.000000	144.810822	1108.720622	-169.418943	-16.001492	1224.577746	-238.157596	-21.336803	1232.127799	-312.798652	51.335726	1111.642068	-107.937599	57.140600	1126.672312	-482.689448	129.139329	963.928846	-90.931684	185.601492	897.572725	-102.497049	204.731569	813.669104	-108.736613	214.512574	913.393767	-120.687511	252.385834	677.939725	-136.709525	222.442681	662.060534	-245.725816	189.828216	567.729225	-109.713355	171.199590	480.137072	-122.938719	109.659781	417.840772	-126.444781	197.286899	469.221706	-149.940333	49.463013	279.857806	-133.745519	66.495250	282.376796	-219.660977	-27.807691	262.047226	-171.267275	261.365890	180.578522	-162.920746	191.371824	173.278565	-107.169125	119.006390	1072.542682	-490.640394	204.549474	1063.062472	-498.116225	218.799903	1093.814278	-483.182583	275.621636	1010.372651	-510.459241	413.893389	925.879685	-494.605003	452.765145	909.437291	-387.103524	374.498742	817.187276	-510.017279	351.237862	736.984017	-482.191992	288.415269	674.971172	-473.776805	376.338703	729.065765	-453.327977	208.513635	554.802988	-452.229445	208.586261	563.085452	-364.538265	126.560488	540.940961	-404.768132	424.091873	499.113369	-422.197301	348.335819	467.672863	-480.192423	-185.968523	934.868942	-286.744109	-17.248332	79.469790	-485.912631	-17.499642	79.311860	-84.941445	
2	0.0100	501.918964	1425.772303	-139.206576	504.846064	1411.278340	-442.067770	485.099286	1471.233478	-296.414047	496.447432	1325.089102	-290.139738	495.315476	1115.502345	-39.336341	700.447388	914.387153	-116.622004	500.833647	1130.557286	-545.492712	692.305442	905.128982	-477.279947	-52.538356	1187.787302	-283.734116	111.312034	1184.802003	-438.444790	112.282373	1167.491627	-123.598192	0.000000	0.000000	-0.000000	144.808339	1108.715138	-169.445651	-15.977860	1224.583372	-238.184230	-21.280176	1232.127538	-312.836408	51.341098	1111.649123	-107.948600	57.166244	1126.689505	-482.709120	129.144281	963.934574	-90.946044	185.626358	897.580941	-102.508020	204.745517	813.679220	-108.733235	214.524275	913.419269	-120.674602	252.419250	677.955062	-136.717424	222.469962	662.073902	-245.721165	189.859238	567.742008	-109.715920	171.216770	480.128180	-122.948678	109.670032	417.863841	-126.438056	197.290591	469.236015	-149.940587	49.482165	279.871435	-133.744144	66.532439	282.384758	-219.654393	-27.775076	262.094982	-171.269806	261.374747	180.553827	-162.922356	191.391961	173.278466	-107.162771	119.043507	1072.560545	-490.646520	204.568088	1063.101912	-498.133637	218.813718	1093.852454	-483.175806	275.654671	1010.368938	-510.453875	413.924072	925.890568	-494.585381	452.778467	909.421549	-387.066638	374.516273	817.189154	-509.981822	351.262404	736.985444	-482.176551	288.416250	675.018959	-473.767977	376.349847	729.076478	-453.307350	208.511515	554.831991	-452.224061	208.590721	563.092762	-364.539318	126.567033	540.955577	-404.775146	424.087983	499.104425	-422.176884	348.324964	467.684514	-480.195220	-185.969506	934.867727	-286.739117	-17.251860	79.458140	-485.911455	-17.480143	79.302161	-84.934722	
3	0.0150	501.911141	1425.756985	-139.174508	504.843831	1411.289314	-442.050447	485.126848	1471.217010	-296.422302	496.435226	1325.060736	-290.134022	495.295664	1115.486290	-39.331976	700.445374	914.368181	-116.625859	500.922041	1130.506750	-545.355713	692.305720	905.129640	-477.280911	-52.642055	1187.753480	-283.871643	111.356063	1184.793573	-438.417976	112.417767	1167.409340	-123.571638	0.000000	0.000000	-0.000000	144.836457	1108.715124	-169.401015	-15.912230	1224.558797	-238.214521	-21.264623	1232.151753	-312.851327	51.361185	1111.670938	-107.969528	57.212251	1126.700344	-482.711017	129.256812	964.095095	-90.882225	186.111107	897.114003	-102.349610	204.734950	813.682572	-108.742755	214.547253	913.412885	-120.695559	252.435223	677.953265	-136.705749	222.514294	662.064195	-245.721379	189.872675	567.758312	-109.710786	170.233564	479.269664	-123.817956	109.695713	417.862190	-126.438317	197.195567	468.950233	-150.160845	49.509186	279.842954	-133.559907	66.553585	282.385941	-219.652666	-27.679215	262.118252	-171.252713	261.386477	180.552700	-162.921053	191.416308	173.261168	-107.174951	119.079520	1072.570947	-490.626286	204.614263	1063.134017	-498.115366	218.847297	1094.081165	-483.416825	275.698323	1010.395349	-510.423240	413.886001	925.925372	-494.511292	452.782529	909.435743	-387.036689	374.539632	817.203142	-509.967308	351.299751	737.023321	-482.260659	288.435369	674.709360	-473.290824	376.407443	729.117289	-453.459604	208.544233	554.700823	-451.950453	209.654140	563.059123	-363.462683	126.557345	540.965425	-404.773588	424.075696	499.109570	-422.184713	348.306148	467.700742	-480.195799	-186.031042	934.886451	-287.000326	-17.245647	79.453324	-485.915024	-17.494857	79.306336	-84.947771	
